ModelForces
version=1
nRows=9
nColumns=52
inDegrees=no

This file contains the forces exerted on a model during a simulation.

A force is a generalized force, meaning that it can be either a force (N) or a torque (Nm).

Units are S.I. units (second, meters, Newtons, ...)
Angles are in degrees.

endheader
time	contactForce_femur_lat_meniscii_l.femur_lat_l.force.X	contactForce_femur_lat_meniscii_l.femur_lat_l.force.Y	contactForce_femur_lat_meniscii_l.femur_lat_l.force.Z	contactForce_femur_lat_meniscii_l.femur_lat_l.torque.X	contactForce_femur_lat_meniscii_l.femur_lat_l.torque.Y	contactForce_femur_lat_meniscii_l.femur_lat_l.torque.Z	contactForce_femur_lat_meniscii_l.meniscus_lat_l.force.X	contactForce_femur_lat_meniscii_l.meniscus_lat_l.force.Y	contactForce_femur_lat_meniscii_l.meniscus_lat_l.force.Z	contactForce_femur_lat_meniscii_l.meniscus_lat_l.torque.X	contactForce_femur_lat_meniscii_l.meniscus_lat_l.torque.Y	contactForce_femur_lat_meniscii_l.meniscus_lat_l.torque.Z	contactForce_femur_med_meniscii_l.femur_med_l.force.X	contactForce_femur_med_meniscii_l.femur_med_l.force.Y	contactForce_femur_med_meniscii_l.femur_med_l.force.Z	contactForce_femur_med_meniscii_l.femur_med_l.torque.X	contactForce_femur_med_meniscii_l.femur_med_l.torque.Y	contactForce_femur_med_meniscii_l.femur_med_l.torque.Z	contactForce_femur_med_meniscii_l.meniscus_med_l.force.X	contactForce_femur_med_meniscii_l.meniscus_med_l.force.Y	contactForce_femur_med_meniscii_l.meniscus_med_l.force.Z	contactForce_femur_med_meniscii_l.meniscus_med_l.torque.X	contactForce_femur_med_meniscii_l.meniscus_med_l.torque.Y	contactForce_femur_med_meniscii_l.meniscus_med_l.torque.Z	contactForce_femur_lat_meniscii_r.femur_lat_r.force.X	contactForce_femur_lat_meniscii_r.femur_lat_r.force.Y	contactForce_femur_lat_meniscii_r.femur_lat_r.force.Z	contactForce_femur_lat_meniscii_r.femur_lat_r.torque.X	contactForce_femur_lat_meniscii_r.femur_lat_r.torque.Y	contactForce_femur_lat_meniscii_r.femur_lat_r.torque.Z	contactForce_femur_lat_meniscii_r.meniscus_lat_r.force.X	contactForce_femur_lat_meniscii_r.meniscus_lat_r.force.Y	contactForce_femur_lat_meniscii_r.meniscus_lat_r.force.Z	contactForce_femur_lat_meniscii_r.meniscus_lat_r.torque.X	contactForce_femur_lat_meniscii_r.meniscus_lat_r.torque.Y	contactForce_femur_lat_meniscii_r.meniscus_lat_r.torque.Z	contactForce_femur_med_meniscii_r.femur_med_r.force.X	contactForce_femur_med_meniscii_r.femur_med_r.force.Y	contactForce_femur_med_meniscii_r.femur_med_r.force.Z	contactForce_femur_med_meniscii_r.femur_med_r.torque.X	contactForce_femur_med_meniscii_r.femur_med_r.torque.Y	contactForce_femur_med_meniscii_r.femur_med_r.torque.Z	contactForce_femur_med_meniscii_r.meniscus_med_r.force.X	contactForce_femur_med_meniscii_r.meniscus_med_r.force.Y	contactForce_femur_med_meniscii_r.meniscus_med_r.force.Z	contactForce_femur_med_meniscii_r.meniscus_med_r.torque.X	contactForce_femur_med_meniscii_r.meniscus_med_r.torque.Y	contactForce_femur_med_meniscii_r.meniscus_med_r.torque.Z	ground_prescribedForce_fx	ground_prescribedForce_fy	ground_prescribedForce_fz
      0.50790706	      0.00000000	      0.00000000	      0.00000000	      0.00000000	      0.00000000	      0.00000000	      0.00000000	      0.00000000	      0.00000000	      0.00000000	      0.00000000	      0.00000000	      0.00000000	      0.00000000	      0.00000000	      0.00000000	      0.00000000	      0.00000000	      0.00000000	      0.00000000	      0.00000000	      0.00000000	      0.00000000	      0.00000000	     25.72693340	    -24.88139256	    -16.87415498	      7.37603469	      0.95612948	      9.84848252	    -25.72693340	     24.88139256	     16.87415498	     -0.55008108	     -0.06708216	     -0.75231629	    146.28998693	    -41.52421183	     18.55684730	     -6.89204700	     -0.59348093	     54.39857238	   -146.28998693	     41.52421183	    -18.55684730	     -0.30647283	      0.39665436	      1.90939232	    169.30235384	    -67.72094154	      0.00000000
      0.51589686	      0.00000000	      0.00000000	      0.00000000	      0.00000000	      0.00000000	      0.00000000	      0.00000000	      0.00000000	      0.00000000	      0.00000000	      0.00000000	      0.00000000	      0.00000000	      0.00000000	      0.00000000	      0.00000000	      0.00000000	      0.00000000	      0.00000000	      0.00000000	      0.00000000	      0.00000000	      0.00000000	      0.00000000	     22.22941077	    -24.16369256	    -16.78455956	      7.32833865	      0.85622210	      8.48439080	    -22.22941077	     24.16369256	     16.78455956	     -0.53433700	      0.02155273	     -0.75011742	    150.05489629	    -43.18667328	     14.25694276	     -5.28954720	     -0.45079294	     55.66746618	   -150.05489629	     43.18667328	    -14.25694276	     -0.18456779	      0.49210473	      2.07295479	    171.96561860	    -68.78624744	      0.00000000
      0.51999197	      0.00000000	      0.00000000	      0.00000000	      0.00000000	      0.00000000	      0.00000000	      0.00000000	      0.00000000	      0.00000000	      0.00000000	      0.00000000	      0.00000000	      0.00000000	      0.00000000	      0.00000000	      0.00000000	      0.00000000	      0.00000000	      0.00000000	      0.00000000	      0.00000000	      0.00000000	      0.00000000	      0.00000000	     20.15520994	    -22.79549068	    -16.02971808	      6.99362846	      0.78849408	      7.68270317	    -20.15520994	     22.79549068	     16.02971808	     -0.50292339	      0.04881533	     -0.71223469	    153.79057091	    -44.10567189	     18.46222307	     -6.86798796	     -0.47424613	     57.01364728	   -153.79057091	     44.10567189	    -18.46222307	     -0.27304713	      0.35170443	      2.17852445	    173.33065758	    -69.33226303	      0.00000000
      0.52408709	      0.00000000	      0.00000000	      0.00000000	      0.00000000	      0.00000000	      0.00000000	      0.00000000	      0.00000000	      0.00000000	      0.00000000	      0.00000000	      0.00000000	      0.00000000	      0.00000000	      0.00000000	      0.00000000	      0.00000000	      0.00000000	      0.00000000	      0.00000000	      0.00000000	      0.00000000	      0.00000000	      0.00000000	     18.30450874	    -21.70851032	    -15.81744556	      6.88013918	      0.73184771	      6.96602435	    -18.30450874	     21.70851032	     15.81744556	     -0.47555974	      0.09065165	     -0.68324979	    157.61713347	    -46.45011025	     16.78409850	     -6.24677291	     -0.41237018	     58.37365991	   -157.61713347	     46.45011025	    -16.78409850	     -0.21184011	      0.39918422	      2.24178396	    174.69569657	    -69.87827863	      0.00000000
      0.52692289	      0.00000000	      0.00000000	      0.00000000	      0.00000000	      0.00000000	      0.00000000	      0.00000000	      0.00000000	      0.00000000	      0.00000000	      0.00000000	      0.00000000	      0.00000000	      0.00000000	      0.00000000	      0.00000000	      0.00000000	      0.00000000	      0.00000000	      0.00000000	      0.00000000	      0.00000000	      0.00000000	      0.00000000	     16.93622278	    -20.90420729	    -15.58570099	      6.76638818	      0.68860925	      6.43749680	    -16.93622278	     20.90420729	     15.58570099	     -0.45565157	      0.11888005	     -0.66296554	    159.11809237	    -47.16841512	     15.07298315	     -5.59902556	     -0.35550672	     58.89170677	   -159.11809237	     47.16841512	    -15.07298315	     -0.17261155	      0.43793162	      2.29457131	    175.64096364	    -70.25638546	      0.00000000
      0.52975869	      0.00000000	      0.00000000	      0.00000000	      0.00000000	      0.00000000	      0.00000000	      0.00000000	      0.00000000	      0.00000000	      0.00000000	      0.00000000	      0.00000000	      0.00000000	      0.00000000	      0.00000000	      0.00000000	      0.00000000	      0.00000000	      0.00000000	      0.00000000	      0.00000000	      0.00000000	      0.00000000	      0.00000000	     15.92921738	    -20.44558084	    -15.24724206	      6.62234677	      0.65602206	      6.04686406	    -15.92921738	     20.44558084	     15.24724206	     -0.44634050	      0.13304639	     -0.65270929	    162.81029054	    -48.75498938	     15.72377465	     -5.84653040	     -0.35327665	     60.22931876	   -162.81029054	     48.75498938	    -15.72377465	     -0.17443645	      0.43281965	      2.36083547	    176.58623071	    -70.63449229	      0.00000000
      0.53390278	      0.00000000	      0.00000000	      0.00000000	      0.00000000	      0.00000000	      0.00000000	      0.00000000	      0.00000000	      0.00000000	      0.00000000	      0.00000000	      0.00000000	      0.00000000	      0.00000000	      0.00000000	      0.00000000	      0.00000000	      0.00000000	      0.00000000	      0.00000000	      0.00000000	      0.00000000	      0.00000000	      0.00000000	     14.69449363	    -19.73677044	    -14.34892676	      6.25259124	      0.61225790	      5.56925327	    -14.69449363	     19.73677044	     14.34892676	     -0.43456092	      0.13196593	     -0.63477729	    164.75920361	    -49.80907677	     14.85259869	     -5.51763305	     -0.30370154	     60.91779184	   -164.75920361	     49.80907677	    -14.85259869	     -0.14752867	      0.44831445	      2.41055820	    177.96759396	    -71.18703758	      0.00000000
      0.53804687	      0.00000000	      0.00000000	      0.00000000	      0.00000000	      0.00000000	      0.00000000	      0.00000000	      0.00000000	      0.00000000	      0.00000000	      0.00000000	      0.00000000	      0.00000000	      0.00000000	      0.00000000	      0.00000000	      0.00000000	      0.00000000	      0.00000000	      0.00000000	      0.00000000	      0.00000000	      0.00000000	      0.00000000	     12.78841820	    -18.09960517	    -13.53208598	      5.88336662	      0.54617699	      4.83638985	    -12.78841820	     18.09960517	     13.53208598	     -0.39578231	      0.15314567	     -0.58574741	    167.43731338	    -51.42988636	     14.51287402	     -5.39759425	     -0.25543336	     61.87233242	   -167.43731338	     51.42988636	    -14.51287402	     -0.11990384	      0.44599730	      2.45922166	    179.34895720	    -71.73958288	      0.00000000
      0.54398750	      0.00000000	      0.00000000	      0.00000000	      0.00000000	      0.00000000	      0.00000000	      0.00000000	      0.00000000	      0.00000000	      0.00000000	      0.00000000	      0.00000000	      0.00000000	      0.00000000	      0.00000000	      0.00000000	      0.00000000	      0.00000000	      0.00000000	      0.00000000	      0.00000000	      0.00000000	      0.00000000	      0.00000000	     11.07050205	    -16.78340578	    -12.48326284	      5.43571819	      0.48513156	      4.17370027	    -11.07050205	     16.78340578	     12.48326284	     -0.36836500	      0.15994716	     -0.54712230	    169.80064607	    -54.67898032	     11.11307145	     -4.12302632	     -0.15609300	     62.68207382	   -169.80064607	     54.67898032	    -11.11307145	     -0.01558796	      0.54315116	      2.45773265	    181.32916688	    -72.53166675	      0.00000000
